<svg width="60" height="60" viewBox="0 0 60 60" fill="none" xmlns="http://www.w3.org/2000/svg">
<rect x="0.5" y="0.5" width="59" height="59" rx="14.5" stroke="black" stroke-linejoin="round"/>
<path d="M24.9017 39.8728C24.9017 39.9154 24.9033 39.9576 24.904 40H27.1513C27.1495 39.9471 27.1482 39.8939 27.1475 39.8408C27.1466 39.797 27.146 39.7533 27.1459 39.7096C27.1442 39.0495 27.3159 38.4083 27.3363 38.1584C27.9263 34.3479 30.7396 32.717 30.7996 32.6827C30.9936 32.831 33.7485 34.8092 34.2725 38.209C34.2923 38.4585 34.4508 39.1053 34.4601 39.7658C34.4614 39.8096 34.462 39.8535 34.4619 39.8975C34.4617 39.9317 34.4612 39.9658 34.4605 40H36.7026C36.7035 39.9576 36.705 39.9155 36.705 39.8728C36.705 36.5212 35.0954 34.1426 33.5574 32.6343H33.6012C32.2865 30.1834 32.0496 27.4415 32.185 24.7201C32.3145 22.1191 32.4112 18.7627 32.522 16.1611C32.5825 14.7397 32.1971 13.4238 31.1078 12.276C31.0418 12.2064 30.8359 12.0319 30.7795 12C30.7795 12 30.5176 12.209 30.4517 12.2783C29.3624 13.4263 28.9771 14.742 29.0376 16.1634C29.1483 18.7649 29.2451 22.1213 29.3746 24.7224C29.5093 27.4306 29.3672 30.2031 28.0137 32.6184C26.4867 34.1093 24.9017 36.4747 24.9017 39.8727V39.8728Z" fill="black"/>
<path d="M42.6063 16.0001C42.5461 16.0083 42.5044 16.0056 42.4711 16.0202C42.3755 16.0619 42.28 16.1055 42.1903 16.1573C40.9627 16.8662 39.9011 17.7527 39.0058 18.8159C37.2092 20.9498 36.3338 23.4021 36.1069 26.099C35.9861 27.5358 35.7644 28.965 35.5935 30.3982C35.5072 31.1227 35.433 31.8484 35.3526 32.5796C36.1069 32.4625 36.6924 32.7231 37.1943 33.1537C37.8813 33.7433 37.9952 34.698 37.4074 35.3776C37.1385 35.6884 36.7313 35.9097 36.3504 36.1185C36.3361 36.1263 36.3222 36.1337 36.3084 36.1407C36.52 36.7008 36.6922 37.305 36.8099 37.9541C36.8546 37.9387 36.9025 37.9223 36.9299 37.9132C38.5246 37.3857 39.5068 36.3619 39.7473 34.7645C39.9521 33.4043 39.1579 31.9624 37.807 31.2319C37.5765 31.1073 37.5034 30.9904 37.536 30.7401C37.7434 29.1479 37.9635 27.5563 38.1167 25.959C38.2586 24.4797 38.6969 23.1119 39.382 21.7669C39.7015 21.1395 40.6093 19.8891 40.6093 19.8891C40.6093 19.8891 40.6093 33.8821 40.6093 40.8415H32.595V42.528H33.9378C33.5352 44.3454 32.5595 45.5613 31.8018 46.2664V40.5324C31.9151 40.0842 32.2733 39.4846 33.3417 39.1831C33.3956 39.1679 33.4493 39.1504 33.5031 39.1327C33.4683 38.8642 33.4301 38.644 33.4221 38.5255C33.3703 38.1312 33.2941 37.7631 33.2011 37.4189C33.0152 37.4745 32.8611 37.5223 32.7511 37.5598C32.0779 37.7893 31.0309 38.619 30.8066 38.79C30.5824 38.619 29.5353 37.7893 28.8621 37.5598C28.7521 37.5223 28.5979 37.4745 28.4122 37.4189C28.3192 37.7631 28.2429 38.1311 28.1911 38.5255C28.183 38.644 28.1449 38.8642 28.1101 39.1327C28.1638 39.1504 28.2176 39.1679 28.2715 39.1831C29.3199 39.479 29.6844 40.0619 29.8048 40.5071V46.2446C29.0511 45.5286 28.0806 44.3083 27.6735 42.5279H29.0248V40.8414H20.997V19.8891C20.997 19.8891 21.9047 21.1395 22.2243 21.7669C22.9094 23.1117 23.3478 24.4796 23.4896 25.9589C23.6429 27.5561 23.8629 29.1478 24.0703 30.74C24.103 30.9904 24.0298 31.1072 23.7993 31.2319C22.4484 31.9624 21.6542 33.4043 21.859 34.7644C22.0996 36.3617 23.0817 37.3856 24.6764 37.9131C24.7025 37.9218 24.7474 37.9372 24.7903 37.952C24.9049 37.2986 25.073 36.6922 25.2802 36.1313C25.2721 36.127 25.2641 36.1229 25.2559 36.1184C24.875 35.9096 24.4677 35.6884 24.1989 35.3775C23.6111 34.698 23.725 33.7432 24.412 33.1536C24.9139 32.723 25.4995 32.4624 26.2537 32.5795C26.1733 31.8484 26.0991 31.1227 26.0128 30.3981C25.842 28.965 25.6203 27.5358 25.4995 26.0989C25.2726 23.4021 24.3972 20.9497 22.6005 18.8159C21.7052 17.7526 20.6436 16.8662 19.416 16.1572C19.3263 16.1055 19.2308 16.0619 19.1352 16.0201C19.1019 16.0056 19.0602 16.0083 19 16V42.5281H25.5256C26.5288 46.99 30.8032 49 30.8032 49C30.8032 49 35.0993 47.0784 36.0885 42.5281H42.6066V16L42.6063 16.0001Z" fill="black"/>
<path d="M52.1311 10H9.83606V56H52.1311V10Z" stroke="white" stroke-miterlimit="10"/>
</svg>
