<svg width="180" height="180" viewBox="0 0 180 180" fill="none" xmlns="http://www.w3.org/2000/svg">
<path d="M89.975 180C129.4 180 151.35 180 165.675 165.672C180 151.344 180 129.443 180 89.9837C180 50.524 180 28.6238 165.675 14.2955C151.35 1.19209e-06 129.45 0 89.975 0C50.525 0 28.6249 1.19209e-06 14.325 14.3283C-4.88758e-05 28.6238 0 50.5568 0 89.9837C0 129.411 -4.88758e-05 151.344 14.325 165.672C28.6249 180 50.55 180 89.975 180Z" fill="black"/>
<path d="M123.801 72.1956C117.001 72.1956 111.951 77.4503 111.951 83.9128C111.951 89.2001 115.676 93.3126 120.376 94.5528L110.751 109.338H119.751L127.976 95.5646H134.101V109.338H141.626V72.1956H123.801ZM124.851 89.2981C121.751 89.2981 119.826 86.8828 119.826 84.1086C119.826 81.3343 121.576 78.6906 124.851 78.6906H134.101V89.2981H124.851Z" fill="white"/>
<path d="M82.6008 72.1956L80.1258 79.0823L90.3758 79.0171L84.3006 101.276C82.5756 107.771 89.3258 112.667 95.1008 108.848L108.226 99.9381L104.376 94.2591L91.2507 103.333L100.101 72.1956H82.6008Z" fill="white"/>
<path d="M101.926 62.7304C101.926 65.3089 100.776 67.4304 96.7009 67.4304C92.8259 67.4304 91.4757 65.3416 91.4757 62.7304C91.4757 60.1194 92.8259 58.0306 96.7009 58.0306C100.776 58.0306 101.926 60.1521 101.926 62.7304Z" fill="white"/>
<path d="M70.1757 102.484V63.5791H41.2758V84.3371C41.2758 94.0958 38.4507 100.134 36.7757 102.451H33.3507V119.423H40.6758V109.371H68.0507V119.456H75.4009V102.484H70.1757ZM48.5759 83.9129V70.4658H62.6757V102.451H44.4759C46.1509 99.7751 48.5759 92.8884 48.5759 83.9129Z" fill="white"/>
<path d="M89.975 180C129.4 180 151.35 180 165.675 165.672C180 151.344 180 129.443 180 89.9837C180 50.524 180 28.6238 165.675 14.2955C151.35 1.19209e-06 129.45 0 89.975 0C50.525 0 28.6249 1.19209e-06 14.325 14.3283C-4.88758e-05 28.6238 0 50.5568 0 89.9837C0 129.411 -4.88758e-05 151.344 14.325 165.672C28.6249 180 50.55 180 89.975 180Z" fill="white"/>
<path d="M123.801 72.1956C117.001 72.1956 111.951 77.4503 111.951 83.9128C111.951 89.2001 115.676 93.3126 120.376 94.5528L110.751 109.338H119.751L127.976 95.5646H134.101V109.338H141.626V72.1956H123.801ZM124.851 89.2981C121.751 89.2981 119.826 86.8828 119.826 84.1086C119.826 81.3343 121.576 78.6906 124.851 78.6906H134.101V89.2981H124.851Z" fill="black"/>
<path d="M82.6008 72.1956L80.1258 79.0823L90.3758 79.0171L84.3006 101.276C82.5756 107.771 89.3258 112.667 95.1008 108.848L108.226 99.9381L104.376 94.2591L91.2507 103.333L100.101 72.1956H82.6008Z" fill="black"/>
<path d="M101.926 62.7304C101.926 65.3089 100.776 67.4304 96.7009 67.4304C92.8259 67.4304 91.4757 65.3416 91.4757 62.7304C91.4757 60.1194 92.8259 58.0306 96.7009 58.0306C100.776 58.0306 101.926 60.1521 101.926 62.7304Z" fill="black"/>
<path d="M70.1757 102.484V63.5791H41.2758V84.3371C41.2758 94.0958 38.4507 100.134 36.7757 102.451H33.3507V119.423H40.6758V109.371H68.0507V119.456H75.4009V102.484H70.1757ZM48.5759 83.9129V70.4658H62.6757V102.451H44.4759C46.1509 99.7751 48.5759 92.8884 48.5759 83.9129Z" fill="black"/>
<path d="M89.975 180C129.4 180 151.35 180 165.675 165.672C180 151.344 180 129.443 180 89.9837C180 50.524 180 28.6238 165.675 14.2955C151.35 1.19209e-06 129.45 0 89.975 0C50.525 0 28.6249 1.19209e-06 14.325 14.3283C-4.88758e-05 28.6238 0 50.5568 0 89.9837C0 129.411 -4.88758e-05 151.344 14.325 165.672C28.6249 180 50.55 180 89.975 180Z" fill="black"/>
<path d="M123.801 72.1956C117.001 72.1956 111.951 77.4503 111.951 83.9128C111.951 89.2001 115.676 93.3126 120.376 94.5528L110.751 109.338H119.751L127.976 95.5646H134.101V109.338H141.626V72.1956H123.801ZM124.851 89.2981C121.751 89.2981 119.826 86.8828 119.826 84.1086C119.826 81.3343 121.576 78.6906 124.851 78.6906H134.101V89.2981H124.851Z" fill="white"/>
<path d="M82.6008 72.1956L80.1258 79.0823L90.3758 79.0171L84.3006 101.276C82.5756 107.771 89.3258 112.667 95.1008 108.848L108.226 99.9381L104.376 94.2591L91.2507 103.333L100.101 72.1956H82.6008Z" fill="white"/>
<path d="M101.926 62.7304C101.926 65.3089 100.776 67.4304 96.7009 67.4304C92.8259 67.4304 91.4757 65.3416 91.4757 62.7304C91.4757 60.1194 92.8259 58.0306 96.7009 58.0306C100.776 58.0306 101.926 60.1521 101.926 62.7304Z" fill="white"/>
<path d="M70.1757 102.484V63.5791H41.2758V84.3371C41.2758 94.0958 38.4507 100.134 36.7757 102.451H33.3507V119.423H40.6758V109.371H68.0507V119.456H75.4009V102.484H70.1757ZM48.5759 83.9129V70.4658H62.6757V102.451H44.4759C46.1509 99.7751 48.5759 92.8884 48.5759 83.9129Z" fill="white"/>
<path d="M89.975 180C129.4 180 151.35 180 165.675 165.672C180 151.344 180 129.443 180 89.9837C180 50.524 180 28.6238 165.675 14.2955C151.35 1.19209e-06 129.45 0 89.975 0C50.525 0 28.6249 1.19209e-06 14.325 14.3283C-4.88758e-05 28.6238 0 50.5568 0 89.9837C0 129.411 -4.88758e-05 151.344 14.325 165.672C28.6249 180 50.55 180 89.975 180Z" fill="black"/>
<path d="M123.801 72.1956C117.001 72.1956 111.951 77.4503 111.951 83.9128C111.951 89.2001 115.676 93.3126 120.376 94.5528L110.751 109.338H119.751L127.976 95.5646H134.101V109.338H141.626V72.1956H123.801ZM124.851 89.2981C121.751 89.2981 119.826 86.8828 119.826 84.1086C119.826 81.3343 121.576 78.6906 124.851 78.6906H134.101V89.2981H124.851Z" fill="white"/>
<path d="M82.6008 72.1956L80.1258 79.0823L90.3758 79.0171L84.3006 101.276C82.5756 107.771 89.3258 112.667 95.1008 108.848L108.226 99.9381L104.376 94.2591L91.2507 103.333L100.101 72.1956H82.6008Z" fill="white"/>
<path d="M101.926 62.7304C101.926 65.3089 100.776 67.4304 96.7009 67.4304C92.8259 67.4304 91.4757 65.3416 91.4757 62.7304C91.4757 60.1194 92.8259 58.0306 96.7009 58.0306C100.776 58.0306 101.926 60.1521 101.926 62.7304Z" fill="white"/>
<path d="M70.1757 102.484V63.5791H41.2758V84.3371C41.2758 94.0958 38.4507 100.134 36.7757 102.451H33.3507V119.423H40.6758V109.371H68.0507V119.456H75.4009V102.484H70.1757ZM48.5759 83.9129V70.4658H62.6757V102.451H44.4759C46.1509 99.7751 48.5759 92.8884 48.5759 83.9129Z" fill="white"/>
</svg>
